<svg width="150" height="40" viewBox="0 0 150 40" fill="none" xmlns="http://www.w3.org/2000/svg">
<path d="M2.00009 13.274C2.00009 15.4432 3.75855 17.2016 5.92772 17.2016C8.09689 17.2016 9.85535 15.4432 9.85535 13.274C9.85535 11.1049 8.09689 9.34641 5.92772 9.34641C3.75855 9.34641 2.00009 11.1049 2.00009 13.274Z" fill="#FFCC33"/>
<path d="M2.00009 32.9121C2.00009 35.0813 3.75855 36.8397 5.92772 36.8397C8.09689 36.8397 9.85535 35.0813 9.85535 32.9121C9.85535 30.743 8.09689 28.9845 5.92772 28.9845C3.75855 28.9845 2.00009 30.743 2.00009 32.9121Z" fill="#FFCC33"/>
<path d="M3.47283 23.0932C3.47283 24.449 4.57188 25.548 5.92764 25.548C7.28339 25.548 8.38245 24.449 8.38245 23.0932C8.38245 21.7375 7.28339 20.6384 5.92764 20.6384C4.57188 20.6384 3.47283 21.7375 3.47283 23.0932Z" fill="#FFCC33"/>
<path d="M3.47283 3.4548C3.47283 4.81055 4.57188 5.9096 5.92764 5.9096C7.28339 5.9096 8.38245 4.81055 8.38245 3.4548C8.38245 2.09905 7.28339 1 5.92764 1C4.57188 1 3.47283 2.09905 3.47283 3.4548Z" fill="#FFCC33"/>
<path d="M17.0724 26.726C17.0724 28.8952 18.8308 30.6536 21 30.6536C23.1692 30.6536 24.9276 28.8952 24.9276 26.726C24.9276 24.5569 23.1692 22.7984 21 22.7984C18.8308 22.7984 17.0724 24.5569 17.0724 26.726Z" fill="#FFCC33"/>
<path d="M18.5452 36.5452C18.5452 37.901 19.6443 39 21 39C22.3558 39 23.4548 37.901 23.4548 36.5452C23.4548 35.1895 22.3558 34.0904 21 34.0904C19.6443 34.0904 18.5452 35.1895 18.5452 36.5452Z" fill="#FFCC33"/>
<path d="M18.5452 16.9071C18.5452 18.2629 19.6443 19.3619 21 19.3619C22.3558 19.3619 23.4548 18.2629 23.4548 16.9071C23.4548 15.5514 22.3558 14.4523 21 14.4523C19.6443 14.4523 18.5452 15.5514 18.5452 16.9071Z" fill="#FFCC33"/>
<path d="M18.5452 7.08792C18.5452 8.44367 19.6443 9.54272 21 9.54272C22.3558 9.54272 23.4548 8.44367 23.4548 7.08792C23.4548 5.73217 22.3558 4.63312 21 4.63312C19.6443 4.63312 18.5452 5.73217 18.5452 7.08792Z" fill="#FFCC33"/>
<path d="M32.1447 13.274C32.1447 15.4432 33.9032 17.2016 36.0724 17.2016C38.2415 17.2016 40 15.4432 40 13.274C40 11.1049 38.2415 9.34641 36.0724 9.34641C33.9032 9.34641 32.1447 11.1049 32.1447 13.274Z" fill="#FFCC33"/>
<path d="M33.6177 3.4548C33.6177 4.81055 34.7168 5.9096 36.0725 5.9096C37.4283 5.9096 38.5273 4.81055 38.5273 3.4548C38.5273 2.09905 37.4283 1 36.0725 1C34.7168 1 33.6177 2.09905 33.6177 3.4548Z" fill="#FFCC33"/>
<path d="M33.6176 23.0932C33.6176 24.449 34.7167 25.548 36.0724 25.548C37.4282 25.548 38.5272 24.449 38.5272 23.0932C38.5272 21.7375 37.4282 20.6384 36.0724 20.6384C34.7167 20.6384 33.6176 21.7375 33.6176 23.0932Z" fill="#FFCC33"/>
<path d="M33.6176 32.9121C33.6176 34.2678 34.7167 35.3669 36.0724 35.3669C37.4282 35.3669 38.5272 34.2678 38.5272 32.9121C38.5272 31.5563 37.4282 30.4573 36.0724 30.4573C34.7167 30.4573 33.6176 31.5563 33.6176 32.9121Z" fill="#FFCC33"/>
<path d="M76.0308 32.9118H77.7745L84.6276 9.54993L88.0339 9.09994V7.56248H78.8288V9.09994L82.5189 9.58742L77.369 26.9119L71.3269 9.54993L75.4226 9.09994V7.56248H64.3927V9.09994L68.4478 9.54993L62.2841 26.7619L57.2963 9.51243L61.027 9.09994V7.56248H49.9972V9.09994L53.3629 9.47493L60.6621 32.9118H62.4057L69.0155 13.4498L76.0308 32.9118Z" fill="white"/>
<path d="M96.0512 16.0372C94.5508 14.3123 94.2264 13.1498 94.2264 11.7999C94.2264 9.81242 95.8484 8.31246 97.9165 8.31246C99.9035 8.31246 101.444 9.66242 101.444 11.8374C101.444 14.0123 99.6602 15.6622 97.1461 17.2747C96.7811 16.8997 96.4161 16.4872 96.0512 16.0372ZM114.218 32.7618L114.38 31.1118L110.447 30.6243C109.19 29.4244 108.135 28.3369 107.122 27.3619C108.987 24.7745 110.406 21.9996 111.339 18.5872L114.421 18.0622V16.5622H106.189V18.0622L109.392 18.5497C108.662 21.5121 107.527 23.9495 106.027 26.2744C104.445 24.6995 102.985 23.2745 101.363 21.6246C99.9441 20.1996 98.9708 19.1871 98.1193 18.2872C102.255 16.2247 104.121 14.3873 104.121 11.7999C104.121 8.98744 101.972 7 97.9571 7C94.1453 7 91.3067 9.02494 91.3067 12.3248C91.3067 14.3123 92.0772 16.2247 94.1048 18.3622C94.1453 18.4372 94.2264 18.4747 94.267 18.5497C90.2119 20.4246 88.1438 22.937 88.1438 26.3119C88.1438 30.0993 91.6312 33.1367 96.7 33.1367C100.593 33.1367 103.188 31.7493 104.972 29.9493C105.418 30.4368 105.905 30.8868 106.392 31.4118C107.73 32.6868 108.987 33.1367 111.136 33.1367C112.19 33.1367 113.001 33.0242 114.218 32.7618ZM99.6602 24.437C101.039 25.862 102.337 27.2119 103.796 28.7494C102.255 30.0243 100.066 30.7368 97.7949 30.7368C93.8614 30.7368 91.6717 28.0369 91.6717 25.2995C91.6717 23.4245 92.4422 21.1746 95.2402 19.5996C96.5784 21.0246 97.8354 22.3746 99.6602 24.437Z" fill="white"/>
<path d="M121.83 21.0246C121.83 24.287 121.83 27.5494 121.749 30.6993L118.019 31.1118V32.6493H129.17C136.956 32.6493 139.997 29.1994 139.997 25.787C139.997 22.7495 137.726 20.3121 132.333 19.5996C136.834 18.7372 138.618 16.3372 138.618 13.6748C138.618 10.1124 135.415 7.56248 129.778 7.56248H118.019V9.09994L121.749 9.51243C121.83 12.7373 121.83 15.9622 121.83 19.1871V21.0246ZM127.913 20.5371C133.509 20.5371 135.942 22.2996 135.942 25.787C135.942 29.0869 133.428 30.8868 128.237 30.8868H125.764C125.683 27.6994 125.683 24.4745 125.683 20.5371H127.913ZM128.562 9.28743C132.698 9.28743 134.807 10.5249 134.807 13.9373C134.807 17.3497 132.698 18.8122 127.791 18.8122H125.683C125.683 15.8497 125.683 12.5123 125.764 9.28743H128.562Z" fill="white"/>
</svg>
